<?xml version="1.0" encoding="UTF-8"?>
<svg width="20px" height="22px" viewBox="0 0 20 22" version="1.1" xmlns="http://www.w3.org/2000/svg" xmlns:xlink="http://www.w3.org/1999/xlink">
    <!-- Generator: Sketch 52.2 (67145) - http://www.bohemiancoding.com/sketch -->
    <title>Group 9</title>
    <desc>Created with Sketch.</desc>
    <g id="Symbols" stroke="none" stroke-width="1" fill="none" fill-rule="evenodd">
        <g id="Bill" transform="translate(1.000000, 1.000000)" stroke="#D2D2D2" stroke-width="2">
            <g id="Group-9">
                <path d="M18,3.24 C18,5.02942752 13.970548,6.48 9.00006127,6.48 C4.02945201,6.48 0,5.02942752 0,3.24 C0,1.45057248 4.02945201,0 9.00006127,0 C13.970548,0 18,1.45057248 18,3.24 Z" id="Stroke-1"></path>
                <path d="M18,7.2 C18,9.1882528 13.970548,10.8 9.00006127,10.8 C4.02945201,10.8 0,9.1882528 0,7.2" id="Stroke-3"></path>
                <path d="M18,11.52 C18,13.5082528 13.970548,15.12 9.00006127,15.12 C4.02945201,15.12 0,13.5082528 0,11.52" id="Stroke-5"></path>
                <path d="M0,3.6 L0,16.0601753 C0,17.9268269 4.02945201,19.44 8.99993873,19.44 C13.970548,19.44 18,17.9268269 18,16.0601753 L18,3.6" id="Stroke-7"></path>
            </g>
        </g>
    </g>
</svg>