<?xml version="1.0" encoding="UTF-8"?>
<svg width="17px" height="17px" viewBox="0 0 17 17" version="1.1" xmlns="http://www.w3.org/2000/svg" xmlns:xlink="http://www.w3.org/1999/xlink">
    <!-- Generator: Sketch 51.3 (57544) - http://www.bohemiancoding.com/sketch -->
    <title>Shape</title>
    <desc>Created with Sketch.</desc>
    <defs></defs>
    <g id="Symbols" stroke="none" stroke-width="1" fill="none" fill-rule="evenodd">
        <g id="Edit-icon" transform="translate(-1.000000, -2.000000)" fill="#D2D2D2" fill-rule="nonzero">
            <path d="M3.48880788,12.5660943 L6.47646212,15.5537485 C6.62220135,15.6994877 6.8408102,15.6994877 6.91367982,15.5537485 L14.4192502,8.04817809 C14.5649895,7.90243886 14.5649895,7.75669963 14.4192502,7.6109604 L11.431596,4.62330616 C11.2858568,4.47756693 11.1401175,4.47756693 10.9943783,4.62330616 L3.48880788,12.1288766 C3.34306865,12.2746158 3.34306865,12.4932246 3.48880788,12.5660943 Z M12.4517706,3.23878347 C12.3060314,3.3845227 12.3060314,3.60313154 12.4517706,3.74887077 L15.3665552,6.6636554 C15.5122945,6.80939463 15.7309033,6.80939463 15.8766425,6.6636554 L16.6782083,5.86208963 C17.2611652,5.35200232 17.2611652,4.55043655 16.6782083,3.96747962 L15.1479464,2.43721769 C14.5649895,1.85426077 13.7634237,1.85426077 13.1804668,2.43721769 L12.4517706,3.23878347 Z M1.01124095,17.5212281 C0.938371339,17.8855762 1.2298498,18.1770547 1.59419788,18.104185 L5.23767866,17.2297497 C5.38341789,17.2297497 5.45628751,17.15688 5.52915712,17.0840104 L5.60202674,17.0111408 C5.67489635,16.9382712 5.67489635,16.7196623 5.52915712,16.5739231 L2.54150288,13.5862689 C2.39576365,13.4405296 2.1771548,13.4405296 2.10428519,13.5133993 L2.03141557,13.5862689 C1.95854596,13.6591385 1.88567634,13.8048777 1.88567634,13.8777473 L1.01124095,17.5212281 Z" id="Shape"></path>
        </g>
    </g>
</svg>