<?xml version="1.0" encoding="UTF-8"?>
<svg width="13px" height="13px" viewBox="0 0 13 13" version="1.1" xmlns="http://www.w3.org/2000/svg" xmlns:xlink="http://www.w3.org/1999/xlink">
    <!-- Generator: Sketch 51.3 (57544) - http://www.bohemiancoding.com/sketch -->
    <title>Mask</title>
    <desc>Created with Sketch.</desc>
    <defs></defs>
    <g id="Symbols" stroke="none" stroke-width="1" fill="none" fill-rule="evenodd" opacity="0.445647321">
        <g id="Info-icon" fill="#AAAAAA">
            <path d="M6.46153846,0 C2.88076923,0 0,2.88076923 0,6.46153846 C0,10.0423077 2.88076923,12.9230769 6.46153846,12.9230769 C10.0423077,12.9230769 12.9230769,10.0423077 12.9230769,6.46153846 C12.9230769,2.88076923 10.0423077,0 6.46153846,0 Z M6.46153846,3.25769231 C6.91923077,3.25769231 7.26923077,3.60769231 7.26923077,4.06538462 C7.26923077,4.52307692 6.91923077,4.87307692 6.46153846,4.87307692 C6.00384615,4.87307692 5.65384615,4.52307692 5.65384615,4.06538462 C5.65384615,3.60769231 6.00384615,3.25769231 6.46153846,3.25769231 L6.46153846,3.25769231 Z M7.80769231,8.91153846 C7.80769231,9.04615385 7.7,9.15384615 7.53846154,9.15384615 L5.38461538,9.15384615 C5.25,9.15384615 5.11538462,9.07307692 5.11538462,8.91153846 L5.11538462,8.37307692 C5.11538462,8.23846154 5.22307692,8.07692308 5.38461538,8.07692308 C5.51923077,8.07692308 5.65384615,7.99615385 5.65384615,7.83461538 L5.65384615,6.75769231 C5.65384615,6.62307692 5.54615385,6.46153846 5.38461538,6.46153846 C5.25,6.46153846 5.11538462,6.38076923 5.11538462,6.21923077 L5.11538462,5.68076923 C5.11538462,5.54615385 5.22307692,5.38461538 5.38461538,5.38461538 L7,5.38461538 C7.13461538,5.38461538 7.26923077,5.51923077 7.26923077,5.68076923 L7.26923077,7.83461538 C7.26923077,7.96923077 7.37692308,8.07692308 7.53846154,8.07692308 C7.67307692,8.07692308 7.80769231,8.21153846 7.80769231,8.37307692 L7.80769231,8.91153846 Z" id="Mask"></path>
        </g>
    </g>
</svg>