<svg xmlns="http://www.w3.org/2000/svg" viewBox="0 0 163 17"><g fill="#231F20" fill-rule="evenodd"><path d="M9.678 1.175H7.555l2.88 4.853h2.554l.91-1.316L11.8 1.175z"></path><path d="M16.45 1.175h-3.715l2.907 4.853v7.656h-1.517v2.779h9.048v-2.779h-2.301V3.751l-1.54-2.576zM20.291 1.175L23.173 6h2.147V1.175zM34.468.92h-.859c-.177 0-.48.027-.48.027l1.996 3.386c.582.404 1.896 1.591 1.896 4.574 0 4.447-2.477 4.904-2.477 4.904l1.77 2.956c3.84-.81 5.938-3.968 5.938-7.886 0-4.473-2.83-7.807-7.784-7.96"></path><path d="M31.107 8.931c0-4.371 2.35-4.648 2.78-4.648h.228l-1.921-3.21c-4.018.707-6.318 3.816-6.318 7.834 0 4.472 2.855 7.91 7.759 8.06h.86l.959-.049-1.845-3.085c-.329-.075-2.502-.808-2.502-4.902M5.13 5.066c0-1.036 1.237-1.087 1.996-1.087h1.137l-1.77-2.956c-.15 0-.985.024-1.112.024C2.325 1.325.202 3.07.202 5.724c0 5.431 6.822 4.346 6.822 6.646 0 1.262-1.44 1.237-1.997 1.212l1.897 3.158c1.44 0 5.56-.252 5.56-5.029 0-5.105-7.354-4.068-7.354-6.645M162.06 5.999V1.175h-5.535l2.907 4.824z"></path><path d="M0 11.661v4.827h5.811l-2.856-4.827zM48.973 11.131l-4.094-6.899v9.451h-1.566v2.805h7.051v-2.805h-1.391zM146.14 5.999V1.175h-5.535l2.906 4.824zM74.901 5.999V1.175h-5.533l2.906 4.824zM114.627 5.999V1.175h-5.535l2.907 4.824zM159.786 11.661l-2.881 4.827h5.534v-4.827zM124.432 1.174c-.454-.024-1.795 0-2.25 0l1.592 2.678c1.77 0 3.134 1.416 3.134 5.03 0 3.412-1.137 4.876-2.982 4.977l1.517 2.529c4.497-.481 6.722-2.908 6.722-7.53 0-4.778-2.73-7.304-7.733-7.684M109.472 16.488h5.534v-4.827h-2.654z"></path><path d="M122.89 3.98l-1.667-2.805h-5.131V3.98h1.566v9.703h-1.566v2.805h8.466l-1.668-2.805zM138.405 8.881c0-3.462 1.114-4.802 2.958-4.901l-1.718-2.857c-4.245.605-6.495 3.235-6.495 7.735 0 5.836 3.663 7.807 7.077 7.807 1.616 0 2.98-.454 2.98-.454l-1.591-2.654c-1.971 0-3.21-1.112-3.21-4.676"></path><path d="M141.263 11.434h1.162v1.895l1.895 3.159h2.831v-5.054h.001V8.753h-5.889zM155.084 13.683v-3.234h3.337V7.062h-3.337V3.98h2.174l-1.642-2.805h-7.328V3.98h1.565v9.703h-1.565v2.805h7.682l1.641-2.805zM107.652 13.683v-3.234h3.463V7.062h-3.463V3.98h2.174l-1.643-2.805h-8.719l1.668 2.805h1.289v9.703h-1.264l-1.668 2.805h9.048l1.693-2.805zM53.169 3.98h1.542v2.83l4.067 6.797V3.98h1.543V1.175h-7.152zM67.927 13.683v-3.234h3.462V7.062h-3.462V3.98h2.174l-1.643-2.805h-7.329V3.98h1.566v9.703h-1.566v2.805h7.656l1.694-2.805zM44.879 1.174h-1.567v2.805h2.35l7.455 12.509h5.662v-1.239l-8.34-14.075z"></path><path d="M98.402 13.683V3.98h1.77l-1.669-2.805h-6.847V3.98h1.567v3.082h-3.994V3.98h1.594V1.175h-8.341V3.98h1.567v9.703h-1.567v2.805h8.341v-2.805h-1.594v-3.234h3.994v3.234h-1.567v2.805h6.873l1.693-2.805zM69.746 16.488h5.535v-4.827h-2.653z"></path></g></svg>