<?xml version="1.0" encoding="UTF-8"?>
<svg width="19px" height="19px" viewBox="0 0 19 19" version="1.1" xmlns="http://www.w3.org/2000/svg" xmlns:xlink="http://www.w3.org/1999/xlink">
    <!-- Generator: Sketch 51.3 (57544) - http://www.bohemiancoding.com/sketch -->
    <title>circle image large</title>
    <desc>Created with Sketch.</desc>
    <defs></defs>
    <g id="Symbols" stroke="none" stroke-width="1" fill="none" fill-rule="evenodd">
        <g id="Profile" fill="#D2D2D2">
            <g id="circle-image-large">
                <g id="avatar">
                    <path d="M18.375,15.68 L18.375,16.5375 C18.375,17.548125 17.548125,18.375 16.5375,18.375 L1.8375,18.375 C0.826875,18.375 0,17.548125 0,16.5375 L0,15.68 C0,13.444375 2.603125,12.096875 5.053125,11.025 C5.145,10.994375 5.20625,10.96375 5.298125,10.9025 C5.481875,10.810625 5.69625,10.810625 5.88,10.933125 C6.86,11.57625 7.993125,11.94375 9.1875,11.94375 C10.381875,11.94375 11.515,11.57625 12.495,10.96375 C12.67875,10.84125 12.893125,10.84125 13.076875,10.933125 C13.16875,10.96375 13.23,10.994375 13.321875,11.055625 C15.771875,12.096875 18.375,13.444375 18.375,15.68" id="Fill-1"></path>
                    <path d="M9.1875,0 C11.7076312,0 13.750625,2.26226875 13.750625,5.053125 C13.750625,7.84398125 11.7076312,10.10625 9.1875,10.10625 C6.66736875,10.10625 4.624375,7.84398125 4.624375,5.053125 C4.624375,2.26226875 6.66736875,0 9.1875,0" id="Fill-3"></path>
                </g>
            </g>
        </g>
    </g>
</svg>