<?xml version="1.0" encoding="UTF-8"?>
<svg width="20px" height="15px" viewBox="0 0 20 15" version="1.1" xmlns="http://www.w3.org/2000/svg" xmlns:xlink="http://www.w3.org/1999/xlink">
    <!-- Generator: Sketch 51.3 (57544) - http://www.bohemiancoding.com/sketch -->
    <title>Group 2</title>
    <desc>Created with Sketch.</desc>
    <defs></defs>
    <g id="Symbols" stroke="none" stroke-width="1" fill="none" fill-rule="evenodd">
        <g id="Card-1" transform="translate(-101.000000, -183.000000)" fill="#D2D2D2">
            <g id="Group-2" transform="translate(101.000000, 183.000000)">
                <path d="M18.3606667,12.8118667 C17.728,12.4405333 16.7506667,11.9998667 15.666,11.9998667 C14.582,11.9998667 13.604,12.4405333 12.972,12.8118667 C12.37,12.1585333 11.9993333,11.2892 11.9993333,10.3332 C11.9993333,8.31186667 13.6446667,6.66653333 15.666,6.66653333 C17.688,6.66653333 19.3333333,8.31186667 19.3333333,10.3332 C19.3333333,11.2892 18.962,12.1585333 18.3606667,12.8118667 M15.666,5.99986667 C13.2766667,5.99986667 11.3326667,7.94386667 11.3326667,10.3332 C11.3326667,12.7225333 13.2766667,14.6665333 15.666,14.6665333 C15.7533333,14.6665333 16.0686667,14.6558667 16.102,14.6445333 C18.288,14.4252 20,12.5758667 20,10.3332 C20,7.94386667 18.0553333,5.99986667 15.666,5.99986667" id="Fill-64"></path>
                <path d="M15.6663333,7.66666667 C14.563,7.66666667 13.6663333,8.564 13.6663333,9.66666667 C13.6663333,10.7693333 14.563,11.6666667 15.6663333,11.6666667 C16.769,11.6666667 17.6663333,10.7693333 17.6663333,9.66666667 C17.6663333,8.564 16.769,7.66666667 15.6663333,7.66666667" id="Fill-66"></path>
                <path d="M6.85026778,5.46210966 C7.07828973,5.66640344 7.38096862,5.77867821 7.70216706,5.77867821 C8.0007948,5.77867821 8.28611161,5.67971437 8.50487379,5.50088497 L14.4913182,0.692168166 C14.5607665,0.636609518 14.601278,0.551535337 14.5995418,0.462410004 C14.5983843,0.373284672 14.5555579,0.289367963 14.4843734,0.235545522 C14.2800796,0.0816017654 14.0399042,0 13.7898903,0 L2.21517176,0 C1.98078371,0 1.75507669,0.0700270469 1.5617789,0.202557574 C1.48885817,0.252907599 1.4425593,0.333351893 1.43677194,0.421898489 C1.43098458,0.50986635 1.46570873,0.596098003 1.53168463,0.655707803 L6.85026778,5.46210966 Z" id="Fill-68"></path>
                <path d="M15.6666667,5.33333333 C15.8506667,5.33333333 16,5.184 16,5 L16,1.926 C16,1.79733333 15.9266667,1.68066667 15.8106667,1.62533333 C15.6953333,1.56933333 15.558,1.58533333 15.458,1.666 L8.99933333,6.85466667 C8.216,7.49533333 6.98333333,7.46733333 6.226,6.78666667 L0.556666667,1.66333333 C0.459333333,1.57466667 0.319333333,1.55333333 0.198,1.606 C0.0773333333,1.65933333 0,1.77866667 0,1.91066667 L0,10 C0,10.7353333 0.598,11.3333333 1.33333333,11.3333333 L10.3806667,11.3333333 C10.4766667,11.3333333 10.5673333,11.292 10.6306667,11.2206667 C10.694,11.1486667 10.7233333,11.0533333 10.7113333,10.9586667 C10.686,10.7533333 10.668,10.5453333 10.668,10.3333333 C10.668,7.576 12.9093333,5.33333333 15.6666667,5.33333333" id="Fill-70"></path>
            </g>
        </g>
    </g>
</svg>