<?xml version="1.0" encoding="UTF-8"?>
<svg width="31px" height="13px" viewBox="0 0 31 13" version="1.1" xmlns="http://www.w3.org/2000/svg" xmlns:xlink="http://www.w3.org/1999/xlink">
    <!-- Generator: Sketch 52.2 (67145) - http://www.bohemiancoding.com/sketch -->
    <title>Transit</title>
    <desc>Created with Sketch.</desc>
    <g id="Symbols" stroke="none" stroke-width="1" fill="none" fill-rule="evenodd">
        <g id="icon-/-transfer" transform="translate(1.000000, 1.000000)">
            <g id="Transit">
                <g id="user-copy" stroke="#D2D2D2" stroke-linecap="round" stroke-linejoin="round" stroke-width="1.5">
                    <path d="M9.38157895,10.5542763 L9.38157895,9.38157895 C9.38157895,8.0862532 8.33150996,7.03618421 7.03618421,7.03618421 L2.34539474,7.03618421 C1.05006899,7.03618421 0,8.0862532 0,9.38157895 L0,10.5542763" id="Shape"></path>
                    <circle id="Oval" cx="4.69078947" cy="2.34539474" r="2.34539474"></circle>
                </g>
                <g id="user-copy-2" transform="translate(19.618421, 0.000000)" stroke="#D2D2D2" stroke-linecap="round" stroke-linejoin="round" stroke-width="1.5">
                    <path d="M9.38157895,10.5542763 L9.38157895,9.38157895 C9.38157895,8.0862532 8.33150996,7.03618421 7.03618421,7.03618421 L2.34539474,7.03618421 C1.05006899,7.03618421 0,8.0862532 0,9.38157895 L0,10.5542763" id="Shape"></path>
                    <circle id="Oval" cx="4.69078947" cy="2.34539474" r="2.34539474"></circle>
                </g>
                <path d="M11.2368421,5.07894737 L17.7631579,5.07894737" id="Shape" stroke="#D2D2D2" stroke-width="1.5" stroke-linecap="round" stroke-linejoin="round"></path>
                <polyline id="Shape" stroke="#D2D2D2" stroke-width="1.5" stroke-linecap="round" stroke-linejoin="round" points="15.3157895 2.63157895 17.7631579 5.07894737 15.3157895 7.52631579"></polyline>
                <g id="arrow-right-copy" transform="translate(17.403509, 4.501949) rotate(-360.000000) translate(-17.403509, -4.501949) translate(15.681287, 1.631579)"></g>
            </g>
        </g>
    </g>
</svg>